<svg width="90" height="60" viewBox="0 0 90 60" fill="none" xmlns="http://www.w3.org/2000/svg">
<path d="M84.8752 28.2772C87.7056 28.2772 90 25.9828 90 23.1524C90 20.3221 87.7056 18.0277 84.8752 18.0277C82.0449 18.0277 79.7505 20.3221 79.7505 23.1524C79.7505 25.9828 82.0449 28.2772 84.8752 28.2772Z" fill="#0061ED"/>
<path d="M3.58137 58.3442C2.35754 58.3686 1.7352 57.6037 1.71434 56.0496C1.73173 54.485 2.35407 53.7132 3.57789 53.7306C4.18632 53.748 4.67307 54.0087 5.03465 54.5094L6.09855 53.5359C5.78564 53.1465 5.4171 52.8371 4.99293 52.6041C4.56877 52.3781 4.07854 52.2564 3.52226 52.2495C2.67393 52.239 1.93338 52.5311 1.29365 53.1256C0.629591 53.7306 0.292345 54.7041 0.271484 56.0496C0.288868 57.3812 0.629591 58.3442 1.29365 58.9353C1.93338 59.5298 2.67393 59.8254 3.52226 59.8254C4.07854 59.8149 4.56877 59.6898 4.99293 59.4499C5.4171 59.2169 5.78564 58.9179 6.09855 58.5494L5.03465 57.5724C4.66959 58.0765 4.18632 58.3373 3.57789 58.3442H3.58137Z" fill="#0061ED"/>
<path d="M11.5886 52.3364V56.7484C11.5886 57.2491 11.4564 57.6385 11.1922 57.9201C10.9314 58.2017 10.5907 58.3408 10.177 58.3408C9.76325 58.3408 9.42253 58.2017 9.15482 57.9201C8.88363 57.6385 8.74803 57.2491 8.74803 56.7484V52.3364H7.30518V57.2595C7.31908 58.0939 7.58332 58.7267 8.10135 59.1509C8.58115 59.5855 9.11657 59.8115 9.7111 59.8184C10.476 59.8184 11.0949 59.5264 11.5677 58.9388H11.5955V59.7315H13.0349V52.3295H11.592L11.5886 52.3364Z" fill="#0061ED"/>
<path d="M18.3959 55.3229L17.2068 55.2325C16.8557 55.1943 16.6123 55.1074 16.4732 54.9683C16.3203 54.8431 16.2473 54.7006 16.2577 54.5337C16.2577 54.273 16.3516 54.0574 16.5428 53.8905C16.7236 53.7236 17.04 53.6402 17.4919 53.6402C17.8883 53.6402 18.2394 53.6993 18.5454 53.821C18.8548 53.9566 19.1469 54.1269 19.425 54.3321L20.3186 53.2543C19.9674 52.9414 19.571 52.691 19.1295 52.5068C18.9 52.4198 18.6532 52.3538 18.3889 52.3086C18.1247 52.2669 17.8292 52.246 17.4989 52.246C16.734 52.246 16.1012 52.4372 15.6041 52.8162C15.093 53.1952 14.8322 53.7688 14.8253 54.5268C14.8357 55.1595 15.0339 55.6498 15.4198 56.0044C15.7988 56.366 16.289 56.5746 16.8939 56.6302L18.1664 56.7449C18.4341 56.7554 18.6497 56.8145 18.8096 56.9223C18.9661 57.0266 19.0461 57.2108 19.0461 57.4785C19.0461 57.7775 18.9139 58.0105 18.6532 58.1774C18.3889 58.3442 18.0517 58.4277 17.6345 58.4277C16.7062 58.4277 15.9483 58.1113 15.3642 57.4785L14.3594 58.5007C15.2946 59.3838 16.3481 59.8254 17.5163 59.8254C18.3785 59.8149 19.0843 59.6098 19.6371 59.21C20.1934 58.8206 20.4785 58.2643 20.4854 57.5446C20.4854 56.9292 20.329 56.4251 20.0196 56.0252C19.6858 55.615 19.1469 55.382 18.3994 55.3264L18.3959 55.3229Z" fill="#0061ED"/>
<path d="M24.1951 58.3373C23.844 58.3477 23.6736 58.1635 23.684 57.788V53.4733H24.734V52.3329H23.684V50.08H22.2447V52.3329H21.5215V53.4733H22.2447V57.9097C22.2447 58.4938 22.4115 58.9388 22.7418 59.2482C23.0652 59.5716 23.4754 59.7315 23.983 59.7315H24.734V58.3338H24.1951V58.3373Z" fill="#0061ED"/>
<path d="M30.9886 53.1952C30.8008 52.9483 30.5331 52.7258 30.1889 52.5311C29.8378 52.3468 29.3823 52.2495 28.8156 52.2391C28.2663 52.2495 27.8178 52.3468 27.4701 52.5311C27.1155 52.7258 26.8408 52.9448 26.6426 53.1917C26.3749 53.4733 26.1767 53.8175 26.0481 54.2278C25.9229 54.6485 25.8604 55.2465 25.8604 56.0287C25.8604 56.8075 25.9229 57.4021 26.0481 57.8123C26.1767 58.2226 26.3749 58.5737 26.6426 58.8762C26.8408 59.1091 27.1155 59.3178 27.4701 59.5055C27.8212 59.7106 28.2698 59.8184 28.8156 59.8254C29.3823 59.8149 29.8413 59.7106 30.1889 59.5055C30.3767 59.4186 30.5331 59.3178 30.6513 59.1995C30.7835 59.0952 30.8982 58.9875 30.9886 58.8797C31.2737 58.5807 31.4753 58.2261 31.597 57.8158C31.7117 57.409 31.7709 56.8145 31.7709 56.0322C31.7709 55.2499 31.7152 54.6554 31.6005 54.2347C31.4823 53.8245 31.2806 53.4803 30.9955 53.2021L30.9886 53.1952ZM30.2585 57.1552C30.2133 57.3986 30.1159 57.6141 29.9734 57.7984C29.8656 57.941 29.7091 58.0696 29.504 58.1774C29.3058 58.2817 29.0764 58.3338 28.8121 58.3338C28.5688 58.3338 28.3428 58.2817 28.1342 58.1774C27.936 58.0661 27.7761 57.941 27.6509 57.7984C27.5257 57.6107 27.4353 57.3986 27.3797 57.1552C27.3241 56.9153 27.2963 56.5398 27.2963 56.0253C27.2963 55.5037 27.3241 55.1248 27.3797 54.8814C27.4353 54.6485 27.5257 54.4433 27.6509 54.266C27.7761 54.0991 27.936 53.967 28.1342 53.8731C28.3428 53.7723 28.5688 53.7236 28.8121 53.7236C29.0764 53.7236 29.3058 53.7723 29.504 53.8731C29.7126 53.9705 29.8691 54.0991 29.9734 54.266C30.1159 54.4433 30.2098 54.6485 30.2585 54.8814C30.3037 55.1248 30.328 55.5107 30.328 56.0392C30.328 56.5433 30.3037 56.9153 30.2585 57.1552Z" fill="#0061ED"/>
<path d="M42.9731 52.9101C42.4654 52.4755 41.9057 52.2599 41.2903 52.2564C40.3168 52.246 39.538 52.5659 38.9574 53.2195C38.7001 52.9344 38.4185 52.698 38.1091 52.5103C37.7962 52.3434 37.3824 52.253 36.8679 52.2425C36.0682 52.2425 35.425 52.5311 34.9348 53.1152H34.907V52.3295H33.4676L33.4502 59.7315H34.8896L34.9 55.323C34.9 54.8049 35.046 54.4086 35.3381 54.1374C35.6127 53.8627 35.9709 53.7236 36.4054 53.7271C36.84 53.7306 37.1982 53.8662 37.4798 54.1443C37.7544 54.4155 37.8935 54.8119 37.89 55.3299L37.8796 59.7419H39.319L39.3294 55.3334C39.3294 54.8154 39.4754 54.419 39.7605 54.1478C40.0421 53.8731 40.4002 53.7341 40.8348 53.7375C41.2694 53.7375 41.6241 53.8766 41.8987 54.1548C42.1734 54.4259 42.3125 54.8223 42.309 55.3403L42.2986 59.7524H43.7379L43.7484 54.8362C43.731 53.9914 43.4702 53.3482 42.9696 52.9101H42.9731Z" fill="#0061ED"/>
<path d="M53.7753 52.8197C53.2364 52.4616 52.5132 52.2877 51.6128 52.3016C50.5454 52.2877 49.7388 52.6493 49.1964 53.3899L50.3333 54.2764C50.455 54.0609 50.6254 53.9079 50.8409 53.8175C51.046 53.741 51.3311 53.6993 51.6893 53.6993C52.6801 53.675 53.1704 53.9914 53.1634 54.645V55.4273L51.1712 55.4342C50.4063 55.4481 49.8292 55.6637 49.4328 56.0844C49.04 56.4946 48.8418 57.0127 48.8453 57.635C48.8453 58.2852 49.0782 58.8206 49.5337 59.2378C49.9683 59.6654 50.5871 59.881 51.3868 59.8845C51.8735 59.8845 52.256 59.8184 52.5306 59.6932C52.8122 59.5716 53.0174 59.3873 53.1495 59.1335H53.1773V59.7871L54.6167 59.7802L54.5958 54.725C54.5819 53.821 54.3073 53.1847 53.7684 52.8162L53.7753 52.8197ZM52.8401 58.2573C52.5932 58.4173 52.1656 58.4903 51.5606 58.4833C51.0808 58.4833 50.7366 58.3895 50.528 58.1948C50.309 58.0209 50.2012 57.8054 50.2012 57.555C50.1908 56.9779 50.6045 56.6789 51.4424 56.658L53.1704 56.6511V57.1865C53.1738 57.7428 53.0626 58.1009 52.8366 58.2573H52.8401Z" fill="#0061ED"/>
<path d="M63.5833 56.4007L63.5554 56.4077L60.7949 51.7175L59.7797 51.954L59.3625 57.3812L59.3381 57.3847L56.8244 52.6389L55.3398 52.9831L59.2443 59.6759L60.482 59.3908L60.7706 53.9983L60.7984 53.9913L63.4268 58.7058L64.6715 58.4173L65.2278 50.6919L63.7432 51.0361L63.5833 56.4007Z" fill="#0061ED"/>
<path d="M69.758 48.133C69.1114 48.1052 68.4056 48.3312 67.6407 48.8075C66.7194 49.3464 66.2187 50.0765 66.1353 50.9909L67.5677 51.1613C67.5607 50.9144 67.6268 50.6954 67.7659 50.5041C67.9015 50.3303 68.124 50.1495 68.4299 49.9653C69.2643 49.4333 69.8484 49.4472 70.1822 50.0104L70.589 50.678L68.8854 51.7175C68.2387 52.1243 67.8563 52.6076 67.7346 53.1708C67.6094 53.7271 67.7102 54.2695 68.0336 54.8014C68.3743 55.3577 68.8471 55.695 69.4521 55.8132C70.0431 55.9522 70.6829 55.8166 71.3713 55.4099C71.7885 55.1561 72.0805 54.9023 72.2509 54.6554C72.4282 54.4086 72.5082 54.1408 72.4908 53.8558L72.5151 53.8418L72.8558 54.4016L74.0831 53.6506L71.4478 49.336C70.968 48.5711 70.4047 48.1678 69.7511 48.133H69.758ZM71.7746 53.2682C71.6425 53.5324 71.3191 53.8175 70.7976 54.1235C70.3873 54.3738 70.0431 54.4677 69.765 54.412C69.4869 54.3738 69.2852 54.2486 69.1531 54.0331C68.8437 53.5463 69.0453 53.077 69.7511 52.6215L71.2252 51.721L71.5034 52.1765C71.792 52.6528 71.8823 53.0144 71.7711 53.2647L71.7746 53.2682Z" fill="#0061ED"/>
<path d="M74.0588 46.2764C74.0797 45.9148 74.2222 45.6089 74.4899 45.3551C74.7264 45.1291 75.0427 45.0039 75.4321 44.9726L75.3105 43.3177C74.7472 43.3455 74.25 43.5541 73.8259 43.9435C73.2696 44.472 73.0193 45.1117 73.0784 45.8627L73.0575 45.8835L72.5186 45.3133L71.4756 46.3042L76.569 51.6723L77.6121 50.6815L74.5386 47.4446C74.1701 47.0448 74.0101 46.6554 74.0588 46.2764Z" fill="#0061ED"/>
<path d="M74.9595 37.6679L78.092 39.7714C77.727 39.8479 77.3967 39.9591 77.0977 40.1086C76.7952 40.2825 76.5379 40.5189 76.3328 40.8248C75.8634 41.5619 75.7765 42.2746 76.0651 42.9561C76.1485 43.2516 76.3293 43.5298 76.6109 43.7975C76.8786 44.0721 77.3828 44.4581 78.1199 44.9518C78.8465 45.4385 79.3889 45.7584 79.7505 45.9044C80.119 46.0747 80.4528 46.1408 80.7587 46.106C81.1168 46.0852 81.4541 45.9913 81.7774 45.8175C82.0938 45.661 82.3789 45.4037 82.6292 45.0491C83.0395 44.4059 83.1473 43.7314 82.9526 43.0291L83.5923 43.4602L84.3954 42.2642L75.7661 36.4684L74.9629 37.6645L74.9595 37.6679ZM78.4328 40.7344C78.6587 40.6475 78.8847 40.6336 79.1107 40.6997C79.3471 40.7483 79.5836 40.8318 79.82 40.95C80.0425 41.0891 80.272 41.2386 80.5119 41.3985C80.7309 41.5445 80.9499 41.6975 81.169 41.8574C81.3811 42.0382 81.5549 42.2294 81.687 42.4311C81.833 42.6188 81.906 42.8309 81.9095 43.0708C81.9165 43.3142 81.8261 43.5784 81.6383 43.8601C81.4471 44.1417 81.2489 44.3225 81.0369 44.3955C80.8109 44.4824 80.5849 44.5033 80.3554 44.4615C80.119 44.4094 79.8791 44.3155 79.6288 44.1834C79.3923 44.0582 79.1559 43.9157 78.923 43.7592C78.6761 43.5958 78.4467 43.422 78.2276 43.2412C78.026 43.0708 77.8556 42.89 77.7165 42.6919C77.581 42.4902 77.5149 42.2712 77.5184 42.0347C77.5184 41.8192 77.6157 41.5689 77.8035 41.2872C77.9947 41.0056 78.1998 40.8179 78.4258 40.731L78.4328 40.7344Z" fill="#0061ED"/>
<path d="M85.1532 33.0473C84.5587 32.9013 84.0267 32.9291 83.5643 33.1342C83.088 33.3602 82.7334 33.8261 82.497 34.5388L82.1215 35.6723C81.9998 36.0026 81.8572 36.2216 81.6904 36.3224C81.5339 36.4406 81.3774 36.4754 81.2175 36.4267C80.9637 36.3641 80.7794 36.2216 80.6612 35.9991C80.543 35.7835 80.5361 35.4567 80.6438 35.0186C80.7377 34.6327 80.8803 34.3059 81.0715 34.0417C81.2766 33.774 81.513 33.5306 81.7773 33.3115L80.9463 32.1886C80.5569 32.4528 80.2197 32.7796 79.9346 33.1655C79.7955 33.3672 79.6738 33.5932 79.5626 33.8365C79.4583 34.0799 79.3679 34.365 79.2879 34.6883C79.1036 35.4324 79.1384 36.0895 79.3887 36.6632C79.6356 37.2507 80.1258 37.6401 80.8629 37.8313C81.4783 37.9739 82.0033 37.8974 82.4379 37.6054C82.8794 37.3237 83.1993 36.8961 83.4009 36.3259L83.8147 35.116C83.8877 34.8587 83.9955 34.664 84.1415 34.5354C84.2805 34.4067 84.4787 34.3754 84.7395 34.4415C85.0315 34.5145 85.2262 34.6953 85.3236 34.9908C85.4209 35.2864 85.4209 35.634 85.3236 36.0373C85.1011 36.9378 84.6143 37.5984 83.8599 38.0156L84.6108 39.236C85.6921 38.5406 86.3736 37.6227 86.6517 36.4858C86.8499 35.6479 86.8186 34.9109 86.5613 34.2781C86.3145 33.6453 85.8451 33.2351 85.1497 33.0543L85.1532 33.0473Z" fill="#0061ED"/>
<path d="M51.8733 0.11554H35.0006V4.96215C35.9602 6.22422 37.1771 8.1573 37.9698 10.6328C40.0558 17.1413 37.789 22.8466 35.0006 26.9318V40.0149L27.8315 29.9531C33.2483 27.7106 36.36 23.2917 36.36 16.6302V15.6323C36.36 5.48714 29.2639 0.383251 17.8706 0.383251H0V46.207H10.2113V31.6394H17.6828L27.5812 46.207H39.4091L39.3952 46.1896H51.8699C68.2454 46.1896 76.5236 34.8589 76.5236 23.7749V22.4051C76.5306 10.5737 68.2489 0.11554 51.8733 0.11554ZM18.6772 23.6046H10.2113V9.03692H18.6772C23.0962 9.03692 26.0236 11.9644 26.0236 16.3207C26.0236 20.6771 23.0962 23.6046 18.6772 23.6046ZM52.4331 36.6598H45.2119V9.64188H52.4331C61.0242 9.64188 66.1941 14.5615 66.1941 23.09C66.1941 31.6185 61.0277 36.6633 52.4331 36.6633V36.6598Z" fill="#272131"/>
</svg>
